
<svg version="1.1" id="Layer_1" xmlns="http://www.w3.org/2000/svg" xmlns:xlink="http://www.w3.org/1999/xlink" x="0px" y="0px"
	viewBox="0 0 130.9 98.9" style="enable-background:new 0 0 130.9 98.9;" xml:space="preserve">
	<style type="text/css">
		.st0{fill:#fff;stroke:#fff;stroke-miterlimit:10;}
		<defs>
			<style>
				.st0{
				stroke-dasharray: 1000;
				stroke-dashoffset: 0;
				-webkit-animation: dash 3s cubic-bezier(0,0.23,1,.1);
				-o-animation: dash 10s cubic-bezier(0,0.23,1,.1);
				-moz-animation: dash 10s cubic-bezier(0,0.23,1,.1);
				animation: dash 10s cubic-bezier(0,0.23,1,.1);
				opacity:10;
				}
				@-webkit-keyframes dash{
				0% {
				opacity: 0;
				fill: none;
				stroke-dashoffset:1000;
				}
				30%{
				opacity: 0;
				fill: none;
				stroke-dashoffset:1000;
				}
				50%{
				opacity: 10;
				fill: none;
				stroke-dashoffset:600;
				}
				75%{
				opacity: 10;
				fill: none;
				stroke-dashoffset:0;
				}
				80%{
				
				fill:#fff;
				opacity: 10;
				}
				100%{
				fill:#fff;
				opacity: 10;
				stroke-dashoffset:0;	
				}
				}
			</style>
		</defs>
	</style>

	<path id="XMLID_2_" class="st0" d="M121.7,48.6c-0.3-0.4-0.8-0.6-1.4-0.6c-0.9,0-1.5,0.3-1.9,1c-0.4,0.7-0.8,1.3-1.1,1.8l-3.5,5.6
		l0.2-0.9v-0.3c0-0.2,0.1-0.5,0.1-0.8c0-0.8-0.2-1.5-0.8-2.1c-0.5-0.7-1.3-1-2.3-1c-0.6,0-1.1,0.1-1.5,0.4c-0.5,0.3-1.3,0.7-1.6,1.3
		l-1,0.8v0.4c0,0.1,0,0.1,0,0.2v0.2l0.3,0.5c-0.1,0.1,0.1,0.1,0.1,0.2l-0.2,1.4c-0.4,1.4-0.9,2.9-1.4,4.2c-0.5,1.4-1.1,2.7-1.8,3.9
		l-0.6,1.2c-0.1,0.2-0.2,0.4-0.4,0.5c-0.1,0.2-0.3,0.4-0.4,0.6l-0.8,0.7v-0.4c0-0.3,0.1-0.7,0.1-1.2c0.1-0.5,0.2-1,0.3-1.5l0.4-1.3
		c0.2-1,0.5-1.9,0.8-2.7l0.6-1.3c0.7-1.6,1.5-3.4,2.5-5.2l1.6-2.3c0.4-0.6,0.9-1.2,1.4-1.6c0.5-0.5,0.9-0.9,1.4-1.4l0.9-0.8l0.6-0.5
		l0.4-0.2v0.6h0.8c0.9,0,1.6-1,2-1.7c0.5-0.7,0.7-1.5,0.7-2.3c0-1.1-0.4-2-1.1-2.8c-0.8-0.7-1.6-1.1-2.6-1.1c-0.8,0-1.4,0.2-2.1,0.6
		l-0.2,0.1l-0.3,0.2l-1.2,0.9l-2.5,2.8c-1.3,2.1-2.4,4.2-3.4,6.3c-0.9,1.9-1.7,3.9-2.4,6c-0.6,1.1-1.2,2.3-2,3.4l-0.6,0.8l-1.2,1.6
		c-0.1,0.1-0.2,0.2-0.3,0.3c-0.1,0.1-0.6,0.2-0.8,0.3L95.1,64v-0.7c0-1.7,0.5-3,0.7-3.8c0.2-0.8,0.6-1.6,0.8-2.2
		c0.2-0.6,0.5-1.2,0.7-1.8c0.2-0.6,0.3-1.5,0.3-2.6c0-1.2-0.3-2.2-0.9-3c-0.6-0.8-1.4-1.2-2.6-1.2c-0.9,0-2,0.3-2.6,0.8
		c-0.6,0.6-1.5,1.3-1.5,2.2v0.4l0.2,0.6l0.1,0.5l-0.2,1.3l-0.8,2.6c-0.4,1.3-0.9,2.6-1.4,3.9c-0.5,1.3-1.1,2.5-1.8,3.7l-1,1.7
		c-0.3,0.5-0.6,1-1.1,1.5l-0.8,0.9c-0.1,0.1-0.5,0.2-0.6,0.3c-0.1,0.1-0.6,0.1-0.6,0.2v-1.2l0.5-1.2l0.7-2.6c0.2-0.9,0.5-1.8,0.8-2.7
		c0.3-0.8,0.6-1.7,0.9-2.7l2.2-5.1l0.9-1.9l0.3-0.7c0.4-0.4,0.6-1.1,0.6-1.9c0-0.9-0.3-1.8-1-2.5c-0.7-0.7-1.6-1.1-2.6-1.1
		c-0.9,0-1.7,0.3-2.3,0.9c-0.7,0.6-1.1,1.3-1.2,2.2l-0.1,0.6l-0.1,1l-0.3,1.5l-1,5.8c-0.1-0.2-0.3-0.4-0.4-0.5
		c-0.8-0.8-1.8-1.2-2.8-1.2c-0.4,0-0.8,0-0.9,0.1l-36.2,8.1L50.2,24c0-0.1,0-0.2,0-0.4c0-0.1,0-0.2,0-0.4c0-1.3-0.5-2.3-1.5-3.1
		l62.5-5.7c1.1-0.1,1.9-0.6,2.5-1.3c0.6-0.8,0.9-1.6,0.9-2.6c0-1.2-0.4-1.8-1.1-2.6c-0.8-0.8-1.7-0.8-2.8-0.8h-0.7L8.5,20.8
		c-0.9,0.2-1.4,0.6-1.4,1.5c0,0.5,0.2,0.8,0.5,1.1c0.3,0.3,0.8,0.4,1.3,0.4L43,20.8c-0.4,0.4-0.7,1.1-0.8,1.9l-7.4,43l-10.1,2.3
		c-0.5,0.1-0.9,0.4-1.2,0.8C23.1,69,23,69.5,23,70c0,0.6,0.2,1.1,0.7,1.5c0.4,0.4,0.9,0.6,1.4,0.6h0.3l8.5-1.3l-3.5,20
		c0,0.1,0,0.1,0,0.2c0,0.1,0,0.1,0,0.2c0,0.4,0.1,0.7,0.4,1c0.3,0.3,0.6,0.5,1.1,0.5c0.8,0,1.3-0.4,1.4-1.2L38.6,70l39-5.6
		c0.7,0,1.2-0.2,1.7-0.5L78.7,65l-0.7,3c0,0.6,0,1.2,0,1.9s0.5,1.3,0.8,1.8l0.6,0.6c0.2,0.3,0.6,0.9,0.9,1.2c0.4,0.3,0.9,0.7,1.4,0.7
		h0.8c0.1,0,0.2-0.4,0.3-0.4l0.7-0.3c0.4-0.1,0.9-0.4,1.3-0.7c0.4-0.3,0.8-0.6,1.1-0.9l2.2-2.4l1.8-2.5l1.6-2.4l0.5-0.7l0.3,1.1
		l0.5,1.3c0.2,0.6,0.6,1.5,0.9,1.8c0.4,0.2,0.8,0,1.1,1h0.8l0.6-0.7c0.3-0.1,0.5-0.4,0.8-0.6c0.3-0.2,0.5-0.5,0.6-0.6l0.6-0.4l0.8-1
		c0,0,0-0.1,0.1-0.1c0,0,0,0.1,0,0.1c0,0.5,0,1,0,1.6c0,0.3,0,0.6,0.1,1c0.1,0.3,0.2,0.7,0.3,1l0.3,0.7c0.3,0.6,0.7,1.3,1.2,1.4
		c0.5,0.2,1,0.6,1.5,0.6h0.3c0,0,0.1-0.4,0.2-0.4l0.7-0.4l0.8-0.7c0.5-0.4,1-0.9,1.4-1.3c0.4-0.4,0.7-0.8,1-1.3l0.5-0.8l0.5-0.6
		l1-1.6c0.1,0.1,0.1,0.3,0.1,0.4c0,0.2,0,0.3,0.1,0.4l0.3,0.6l0.5,0.8c0.3,0.6,0.9,0.8,1.7,0.8c0.9,0,1.5-0.4,1.9-1.3l2.1-3.9
		l4.6-7.9l2.3-3.9c0.2-0.2,0.3-0.6,0.3-1C122.2,49.5,122,49,121.7,48.6z"/>
	</svg>
